<svg width="27" height="26" viewBox="0 0 27 26" fill="none" xmlns="http://www.w3.org/2000/svg">
<path d="M12.4275 0.953177C12.8858 -0.135435 14.4468 -0.135434 14.9052 0.95318L17.6102 7.37836C17.8035 7.8373 18.2404 8.15087 18.7419 8.19059L25.7632 8.74669C26.9529 8.84091 27.4352 10.3076 26.5289 11.0746L21.1794 15.6016C20.7973 15.925 20.6303 16.4324 20.7471 16.9158L22.3815 23.6847C22.6583 24.8315 21.3955 25.7381 20.377 25.1235L14.3657 21.4961C13.9363 21.237 13.3963 21.237 12.967 21.4961L6.95566 25.1235C5.93716 25.7381 4.67428 24.8315 4.95119 23.6847L6.58557 16.9158C6.70231 16.4324 6.53544 15.925 6.15335 15.6016L0.803757 11.0746C-0.102616 10.3076 0.379765 8.84091 1.5694 8.74669L8.59081 8.19059C9.09234 8.15087 9.52922 7.8373 9.72243 7.37836L12.4275 0.953177Z" fill="#006B6A"/>
</svg>
